<svg width="700" height="220" xmlns="http://www.w3.org/2000/svg" xmlns:xlink="http://www.w3.org/1999/xlink" version="1.1" baseProfile="full" viewBox="0 0 700 220">
<rect width="700" height="220" x="0" y="0" id="0" fill="white"></rect>
<path d="M89.8 156.5L672 156.5" fill="none" stroke="#E0E6F1"></path>
<path d="M89.8 133.5L672 133.5" fill="none" stroke="#E0E6F1"></path>
<path d="M89.8 111.5L672 111.5" fill="none" stroke="#E0E6F1"></path>
<path d="M89.8 89.5L672 89.5" fill="none" stroke="#E0E6F1"></path>
<path d="M89.8 66.5L672 66.5" fill="none" stroke="#E0E6F1"></path>
<path d="M89.8 44.5L672 44.5" fill="none" stroke="#E0E6F1"></path>
<path d="M89.8 156.5L672 156.5" fill="none" stroke="#6E7079" stroke-linecap="round"></path>
<path d="M90.5 156L90.5 161" fill="none" stroke="#6E7079"></path>
<path d="M235.5 156L235.5 161" fill="none" stroke="#6E7079"></path>
<path d="M381.5 156L381.5 161" fill="none" stroke="#6E7079"></path>
<path d="M526.5 156L526.5 161" fill="none" stroke="#6E7079"></path>
<path d="M672.5 156L672.5 161" fill="none" stroke="#6E7079"></path>
<text dominant-baseline="central" text-anchor="end" style="font-size:12px;font-family:sans-serif;" transform="translate(81.76 156)" fill="#6E7079">0</text>
<text dominant-baseline="central" text-anchor="end" style="font-size:12px;font-family:sans-serif;" transform="translate(81.76 133.6)" fill="#6E7079">1,000,000</text>
<text dominant-baseline="central" text-anchor="end" style="font-size:12px;font-family:sans-serif;" transform="translate(81.76 111.2)" fill="#6E7079">2,000,000</text>
<text dominant-baseline="central" text-anchor="end" style="font-size:12px;font-family:sans-serif;" transform="translate(81.76 88.8)" fill="#6E7079">3,000,000</text>
<text dominant-baseline="central" text-anchor="end" style="font-size:12px;font-family:sans-serif;" transform="translate(81.76 66.4)" fill="#6E7079">4,000,000</text>
<text dominant-baseline="central" text-anchor="end" style="font-size:12px;font-family:sans-serif;" transform="translate(81.76 44)" fill="#6E7079">5,000,000</text>
<text dominant-baseline="central" text-anchor="middle" style="font-size:12px;font-family:sans-serif;" y="6" transform="translate(162.54 164)" fill="#6E7079">bounded(0)</text>
<text dominant-baseline="central" text-anchor="middle" style="font-size:12px;font-family:sans-serif;" y="6" transform="translate(308.1 164)" fill="#6E7079">bounded(1)</text>
<text dominant-baseline="central" text-anchor="middle" style="font-size:12px;font-family:sans-serif;" y="6" transform="translate(453.66 164)" fill="#6E7079">bounded(50)</text>
<text dominant-baseline="central" text-anchor="middle" style="font-size:12px;font-family:sans-serif;" y="6" transform="translate(599.22 164)" fill="#6E7079">bounded(100)</text>
<path d="M100.7 156l17.7 0l0 -24.5l-17.7 0Z" fill="#5470c6"></path>
<path d="M246.2 156l17.7 0l0 -25.9l-17.7 0Z" fill="#5470c6"></path>
<path d="M391.8 156l17.7 0l0 -25.5l-17.7 0Z" fill="#5470c6"></path>
<path d="M537.4 156l17.7 0l0 -25.6l-17.7 0Z" fill="#5470c6"></path>
<path d="M121.9 156l17.7 0l0 -1.9l-17.7 0Z" fill="#91cc75"></path>
<path d="M267.4 156l17.7 0l0 -1.9l-17.7 0Z" fill="#91cc75"></path>
<path d="M413 156l17.7 0l0 -1.9l-17.7 0Z" fill="#91cc75"></path>
<path d="M558.6 156l17.7 0l0 -1.9l-17.7 0Z" fill="#91cc75"></path>
<path d="M143.1 156l17.7 0l0 0l-17.7 0Z" fill="#fac858"></path>
<path d="M288.7 156l17.7 0l0 -15.4l-17.7 0Z" fill="#fac858"></path>
<path d="M434.2 156l17.7 0l0 -109.6l-17.7 0Z" fill="#fac858"></path>
<path d="M579.8 156l17.7 0l0 -105l-17.7 0Z" fill="#fac858"></path>
<path d="M164.3 156l17.7 0l0 0l-17.7 0Z" fill="#ee6666"></path>
<path d="M309.9 156l17.7 0l0 0l-17.7 0Z" fill="#ee6666"></path>
<path d="M455.4 156l17.7 0l0 0l-17.7 0Z" fill="#ee6666"></path>
<path d="M601 156l17.7 0l0 0l-17.7 0Z" fill="#ee6666"></path>
<path d="M185.5 156l17.7 0l0 -24.3l-17.7 0Z" fill="#73c0de"></path>
<path d="M331.1 156l17.7 0l0 -32.5l-17.7 0Z" fill="#73c0de"></path>
<path d="M476.6 156l17.7 0l0 -36.9l-17.7 0Z" fill="#73c0de"></path>
<path d="M622.2 156l17.7 0l0 -38.8l-17.7 0Z" fill="#73c0de"></path>
<path d="M206.7 156l17.7 0l0 0l-17.7 0Z" fill="#3ba272"></path>
<path d="M352.3 156l17.7 0l0 0l-17.7 0Z" fill="#3ba272"></path>
<path d="M497.8 156l17.7 0l0 0l-17.7 0Z" fill="#3ba272"></path>
<path d="M643.4 156l17.7 0l0 0l-17.7 0Z" fill="#3ba272"></path>
<path d="M-5 -5l385.4 0l0 24l-385.4 0Z" transform="translate(162.32 190)" fill="rgb(0,0,0)" fill-opacity="0" stroke="#ccc" stroke-width="0"></path>
<path d="M3.5 0L21.5 0A3.5 3.5 0 0 1 25 3.5L25 10.5A3.5 3.5 0 0 1 21.5 14L3.5 14A3.5 3.5 0 0 1 0 10.5L0 3.5A3.5 3.5 0 0 1 3.5 0" transform="translate(162.32 190)" fill="#5470c6"></path>
<text dominant-baseline="central" text-anchor="start" style="font-size:12px;font-family:sans-serif;" x="30" y="7" transform="translate(162.32 190)" fill="#333">loole</text>
<path d="M3.5 0L21.5 0A3.5 3.5 0 0 1 25 3.5L25 10.5A3.5 3.5 0 0 1 21.5 14L3.5 14A3.5 3.5 0 0 1 0 10.5L0 3.5A3.5 3.5 0 0 1 3.5 0" transform="translate(227.76 190)" fill="#91cc75"></path>
<text dominant-baseline="central" text-anchor="start" style="font-size:12px;font-family:sans-serif;" x="30" y="7" transform="translate(227.76 190)" fill="#333">flume</text>
<path d="M3.5 0L21.5 0A3.5 3.5 0 0 1 25 3.5L25 10.5A3.5 3.5 0 0 1 21.5 14L3.5 14A3.5 3.5 0 0 1 0 10.5L0 3.5A3.5 3.5 0 0 1 3.5 0" transform="translate(297.16 190)" fill="#fac858"></path>
<text dominant-baseline="central" text-anchor="start" style="font-size:12px;font-family:sans-serif;" x="30" y="7" transform="translate(297.16 190)" fill="#333">async-channel</text>
<path d="M3.5 0L21.5 0A3.5 3.5 0 0 1 25 3.5L25 10.5A3.5 3.5 0 0 1 21.5 14L3.5 14A3.5 3.5 0 0 1 0 10.5L0 3.5A3.5 3.5 0 0 1 3.5 0" transform="translate(414.8 190)" fill="#73c0de"></path>
<text dominant-baseline="central" text-anchor="start" style="font-size:12px;font-family:sans-serif;" xml:space="preserve" x="30" y="7" transform="translate(414.8 190)" fill="#333">kanal (std-mutex)</text>
<path d="M-143.5 -4.5l287 0l0 23l-287 0Z" transform="translate(350 16)" fill="#ddd8" stroke="#ccc"></path>
<text dominant-baseline="central" text-anchor="middle" style="font-size:14px;font-family:sans-serif;font-weight:bold;" xml:space="preserve" y="7" transform="translate(350 16)" fill="#464646">5000 async senders / 10 sync receivers</text>
</svg>