<svg width="700" height="220" xmlns="http://www.w3.org/2000/svg" xmlns:xlink="http://www.w3.org/1999/xlink" version="1.1" baseProfile="full" viewBox="0 0 700 220">
<rect width="700" height="220" x="0" y="0" fill="white"></rect>
<path d="M89.8 156.5L672 156.5" fill="none" pointer-events="visible" stroke="#E0E6F1" class="zr1-cls-8"></path>
<path d="M89.8 140.5L672 140.5" fill="none" pointer-events="visible" stroke="#E0E6F1" class="zr1-cls-8"></path>
<path d="M89.8 124.5L672 124.5" fill="none" pointer-events="visible" stroke="#E0E6F1" class="zr1-cls-8"></path>
<path d="M89.8 108.5L672 108.5" fill="none" pointer-events="visible" stroke="#E0E6F1" class="zr1-cls-8"></path>
<path d="M89.8 92.5L672 92.5" fill="none" pointer-events="visible" stroke="#E0E6F1" class="zr1-cls-8"></path>
<path d="M89.8 76.5L672 76.5" fill="none" pointer-events="visible" stroke="#E0E6F1" class="zr1-cls-8"></path>
<path d="M89.8 60.5L672 60.5" fill="none" pointer-events="visible" stroke="#E0E6F1" class="zr1-cls-8"></path>
<path d="M89.8 44.5L672 44.5" fill="none" pointer-events="visible" stroke="#E0E6F1" class="zr1-cls-8"></path>
<path d="M89.8 156.5L672 156.5" fill="none" pointer-events="visible" stroke="#6E7079" stroke-linecap="round" class="zr1-cls-8"></path>
<path d="M90.5 156L90.5 161" fill="none" pointer-events="visible" stroke="#6E7079" class="zr1-cls-8"></path>
<path d="M235.5 156L235.5 161" fill="none" pointer-events="visible" stroke="#6E7079" class="zr1-cls-8"></path>
<path d="M381.5 156L381.5 161" fill="none" pointer-events="visible" stroke="#6E7079" class="zr1-cls-8"></path>
<path d="M526.5 156L526.5 161" fill="none" pointer-events="visible" stroke="#6E7079" class="zr1-cls-8"></path>
<path d="M672.5 156L672.5 161" fill="none" pointer-events="visible" stroke="#6E7079" class="zr1-cls-8"></path>
<text dominant-baseline="central" text-anchor="end" style="font-size:12px;font-family:sans-serif;" transform="translate(81.76 156)" fill="#6E7079">0</text>
<text dominant-baseline="central" text-anchor="end" style="font-size:12px;font-family:sans-serif;" transform="translate(81.76 140)" fill="#6E7079">500,000</text>
<text dominant-baseline="central" text-anchor="end" style="font-size:12px;font-family:sans-serif;" transform="translate(81.76 124)" fill="#6E7079">1,000,000</text>
<text dominant-baseline="central" text-anchor="end" style="font-size:12px;font-family:sans-serif;" transform="translate(81.76 108)" fill="#6E7079">1,500,000</text>
<text dominant-baseline="central" text-anchor="end" style="font-size:12px;font-family:sans-serif;" transform="translate(81.76 92)" fill="#6E7079">2,000,000</text>
<text dominant-baseline="central" text-anchor="end" style="font-size:12px;font-family:sans-serif;" transform="translate(81.76 76)" fill="#6E7079">2,500,000</text>
<text dominant-baseline="central" text-anchor="end" style="font-size:12px;font-family:sans-serif;" transform="translate(81.76 60)" fill="#6E7079">3,000,000</text>
<text dominant-baseline="central" text-anchor="end" style="font-size:12px;font-family:sans-serif;" transform="translate(81.76 44)" fill="#6E7079">3,500,000</text>
<text dominant-baseline="central" text-anchor="middle" style="font-size:12px;font-family:sans-serif;" y="6" transform="translate(162.54 164)" fill="#6E7079">bounded(0)</text>
<text dominant-baseline="central" text-anchor="middle" style="font-size:12px;font-family:sans-serif;" y="6" transform="translate(308.1 164)" fill="#6E7079">bounded(1)</text>
<text dominant-baseline="central" text-anchor="middle" style="font-size:12px;font-family:sans-serif;" y="6" transform="translate(453.66 164)" fill="#6E7079">bounded(50)</text>
<text dominant-baseline="central" text-anchor="middle" style="font-size:12px;font-family:sans-serif;" y="6" transform="translate(599.22 164)" fill="#6E7079">bounded(100)</text>
<path d="M100.7 156l17.7 0l0 -48.8l-17.7 0Z" fill="#5470c6" ecmeta_series_index="0" ecmeta_data_index="0" ecmeta_ssr_type="chart" class="zr1-cls-9"></path>
<path d="M246.2 156l17.7 0l0 -42.9l-17.7 0Z" fill="#5470c6" ecmeta_series_index="0" ecmeta_data_index="1" ecmeta_ssr_type="chart" class="zr1-cls-9"></path>
<path d="M391.8 156l17.7 0l0 -43.8l-17.7 0Z" fill="#5470c6" ecmeta_series_index="0" ecmeta_data_index="2" ecmeta_ssr_type="chart" class="zr1-cls-9"></path>
<path d="M537.4 156l17.7 0l0 -43.7l-17.7 0Z" fill="#5470c6" ecmeta_series_index="0" ecmeta_data_index="3" ecmeta_ssr_type="chart" class="zr1-cls-9"></path>
<path d="M121.9 156l17.7 0l0 -4.3l-17.7 0Z" fill="#91cc75" ecmeta_series_index="1" ecmeta_data_index="0" ecmeta_ssr_type="chart" class="zr1-cls-10"></path>
<path d="M267.4 156l17.7 0l0 -4.3l-17.7 0Z" fill="#91cc75" ecmeta_series_index="1" ecmeta_data_index="1" ecmeta_ssr_type="chart" class="zr1-cls-10"></path>
<path d="M413 156l17.7 0l0 -4.3l-17.7 0Z" fill="#91cc75" ecmeta_series_index="1" ecmeta_data_index="2" ecmeta_ssr_type="chart" class="zr1-cls-10"></path>
<path d="M558.6 156l17.7 0l0 -4.3l-17.7 0Z" fill="#91cc75" ecmeta_series_index="1" ecmeta_data_index="3" ecmeta_ssr_type="chart" class="zr1-cls-10"></path>
<path d="M143.1 156l17.7 0l0 0l-17.7 0Z" fill="#fac858" ecmeta_series_index="2" ecmeta_data_index="0" ecmeta_ssr_type="chart" class="zr1-cls-11"></path>
<path d="M288.7 156l17.7 0l0 -34.8l-17.7 0Z" fill="#fac858" ecmeta_series_index="2" ecmeta_data_index="1" ecmeta_ssr_type="chart" class="zr1-cls-11"></path>
<path d="M434.2 156l17.7 0l0 -21.9l-17.7 0Z" fill="#fac858" ecmeta_series_index="2" ecmeta_data_index="2" ecmeta_ssr_type="chart" class="zr1-cls-11"></path>
<path d="M579.8 156l17.7 0l0 -24.6l-17.7 0Z" fill="#fac858" ecmeta_series_index="2" ecmeta_data_index="3" ecmeta_ssr_type="chart" class="zr1-cls-11"></path>
<path d="M164.3 156l17.7 0l0 0l-17.7 0Z" fill="#ee6666" ecmeta_series_index="3" ecmeta_data_index="0" ecmeta_ssr_type="chart" class="zr1-cls-12"></path>
<path d="M309.9 156l17.7 0l0 -88.4l-17.7 0Z" fill="#ee6666" ecmeta_series_index="3" ecmeta_data_index="1" ecmeta_ssr_type="chart" class="zr1-cls-12"></path>
<path d="M455.4 156l17.7 0l0 -56.4l-17.7 0Z" fill="#ee6666" ecmeta_series_index="3" ecmeta_data_index="2" ecmeta_ssr_type="chart" class="zr1-cls-12"></path>
<path d="M601 156l17.7 0l0 -56.7l-17.7 0Z" fill="#ee6666" ecmeta_series_index="3" ecmeta_data_index="3" ecmeta_ssr_type="chart" class="zr1-cls-12"></path>
<path d="M185.5 156l17.7 0l0 -109l-17.7 0Z" fill="#73c0de" ecmeta_series_index="4" ecmeta_data_index="0" ecmeta_ssr_type="chart" class="zr1-cls-13"></path>
<path d="M331.1 156l17.7 0l0 -67.4l-17.7 0Z" fill="#73c0de" ecmeta_series_index="4" ecmeta_data_index="1" ecmeta_ssr_type="chart" class="zr1-cls-13"></path>
<path d="M476.6 156l17.7 0l0 -67.6l-17.7 0Z" fill="#73c0de" ecmeta_series_index="4" ecmeta_data_index="2" ecmeta_ssr_type="chart" class="zr1-cls-13"></path>
<path d="M622.2 156l17.7 0l0 -70.2l-17.7 0Z" fill="#73c0de" ecmeta_series_index="4" ecmeta_data_index="3" ecmeta_ssr_type="chart" class="zr1-cls-13"></path>
<path d="M206.7 156l17.7 0l0 0l-17.7 0Z" fill="#3ba272" ecmeta_series_index="5" ecmeta_data_index="0" ecmeta_ssr_type="chart" class="zr1-cls-14"></path>
<path d="M352.3 156l17.7 0l0 0l-17.7 0Z" fill="#3ba272" ecmeta_series_index="5" ecmeta_data_index="1" ecmeta_ssr_type="chart" class="zr1-cls-14"></path>
<path d="M497.8 156l17.7 0l0 0l-17.7 0Z" fill="#3ba272" ecmeta_series_index="5" ecmeta_data_index="2" ecmeta_ssr_type="chart" class="zr1-cls-14"></path>
<path d="M643.4 156l17.7 0l0 0l-17.7 0Z" fill="#3ba272" ecmeta_series_index="5" ecmeta_data_index="3" ecmeta_ssr_type="chart" class="zr1-cls-14"></path>
<path d="M-5 -5l450.8 0l0 24l-450.8 0Z" transform="translate(129.6 190)" fill="rgb(0,0,0)" fill-opacity="0" stroke="#ccc" stroke-width="0" class="zr1-cls-8"></path>
<path d="M3.5 0L21.5 0A3.5 3.5 0 0 1 25 3.5L25 10.5A3.5 3.5 0 0 1 21.5 14L3.5 14A3.5 3.5 0 0 1 0 10.5L0 3.5A3.5 3.5 0 0 1 3.5 0" transform="translate(129.6 190)" fill="#5470c6" ecmeta_series_index="0" ecmeta_data_index="0" ecmeta_ssr_type="legend" ecmeta_silent="true" class="zr1-cls-8"></path>
<text dominant-baseline="central" text-anchor="start" style="font-size:12px;font-family:sans-serif;" x="30" y="7" transform="translate(129.6 190)" fill="#333">loole</text>
<path d="M0 0l55.4 0l0 14l-55.4 0Z" transform="translate(129.6 190)" fill="none" pointer-events="visible" ecmeta_series_index="0" ecmeta_data_index="0" ecmeta_ssr_type="legend" class="zr1-cls-15"></path>
<path d="M3.5 0L21.5 0A3.5 3.5 0 0 1 25 3.5L25 10.5A3.5 3.5 0 0 1 21.5 14L3.5 14A3.5 3.5 0 0 1 0 10.5L0 3.5A3.5 3.5 0 0 1 3.5 0" transform="translate(195.04 190)" fill="#91cc75" ecmeta_series_index="1" ecmeta_data_index="1" ecmeta_ssr_type="legend" ecmeta_silent="true" class="zr1-cls-8"></path>
<text dominant-baseline="central" text-anchor="start" style="font-size:12px;font-family:sans-serif;" x="30" y="7" transform="translate(195.04 190)" fill="#333">flume</text>
<path d="M0 0l59.4 0l0 14l-59.4 0Z" transform="translate(195.04 190)" fill="none" pointer-events="visible" ecmeta_series_index="1" ecmeta_data_index="1" ecmeta_ssr_type="legend" class="zr1-cls-15"></path>
<path d="M3.5 0L21.5 0A3.5 3.5 0 0 1 25 3.5L25 10.5A3.5 3.5 0 0 1 21.5 14L3.5 14A3.5 3.5 0 0 1 0 10.5L0 3.5A3.5 3.5 0 0 1 3.5 0" transform="translate(264.44 190)" fill="#fac858" ecmeta_series_index="2" ecmeta_data_index="2" ecmeta_ssr_type="legend" ecmeta_silent="true" class="zr1-cls-8"></path>
<text dominant-baseline="central" text-anchor="start" style="font-size:12px;font-family:sans-serif;" x="30" y="7" transform="translate(264.44 190)" fill="#333">async-channel</text>
<path d="M0 0l107.6 0l0 14l-107.6 0Z" transform="translate(264.44 190)" fill="none" pointer-events="visible" ecmeta_series_index="2" ecmeta_data_index="2" ecmeta_ssr_type="legend" class="zr1-cls-15"></path>
<path d="M3.5 0L21.5 0A3.5 3.5 0 0 1 25 3.5L25 10.5A3.5 3.5 0 0 1 21.5 14L3.5 14A3.5 3.5 0 0 1 0 10.5L0 3.5A3.5 3.5 0 0 1 3.5 0" transform="translate(382.08 190)" fill="#ee6666" ecmeta_series_index="3" ecmeta_data_index="3" ecmeta_ssr_type="legend" ecmeta_silent="true" class="zr1-cls-8"></path>
<text dominant-baseline="central" text-anchor="start" style="font-size:12px;font-family:sans-serif;" x="30" y="7" transform="translate(382.08 190)" fill="#333">tokio</text>
<path d="M0 0l55.4 0l0 14l-55.4 0Z" transform="translate(382.08 190)" fill="none" pointer-events="visible" ecmeta_series_index="3" ecmeta_data_index="3" ecmeta_ssr_type="legend" class="zr1-cls-15"></path>
<path d="M3.5 0L21.5 0A3.5 3.5 0 0 1 25 3.5L25 10.5A3.5 3.5 0 0 1 21.5 14L3.5 14A3.5 3.5 0 0 1 0 10.5L0 3.5A3.5 3.5 0 0 1 3.5 0" transform="translate(447.52 190)" fill="#73c0de" ecmeta_series_index="4" ecmeta_data_index="4" ecmeta_ssr_type="legend" ecmeta_silent="true" class="zr1-cls-8"></path>
<text dominant-baseline="central" text-anchor="start" style="font-size:12px;font-family:sans-serif;" xml:space="preserve" x="30" y="7" transform="translate(447.52 190)" fill="#333">kanal (std-mutex)</text>
<path d="M0 0l122.9 0l0 14l-122.9 0Z" transform="translate(447.52 190)" fill="none" pointer-events="visible" ecmeta_series_index="4" ecmeta_data_index="4" ecmeta_ssr_type="legend" class="zr1-cls-15"></path>
<path d="M-139.5 -4.5l279 0l0 23l-279 0Z" transform="translate(350 16)" fill="#ddd8" stroke="#ccc" class="zr1-cls-8"></path>
<text dominant-baseline="central" text-anchor="middle" style="font-size:14px;font-family:sans-serif;font-weight:bold;" xml:space="preserve" y="7" transform="translate(350 16)" fill="#464646">2000 async senders / 1 async receiver</text>
<style ><![CDATA[
.zr1-cls-8:hover {
pointer-events:none;
}
.zr1-cls-9:hover {
cursor:pointer;
fill:rgba(92,123,217,1);
}
.zr1-cls-10:hover {
cursor:pointer;
fill:rgba(159,224,128,1);
}
.zr1-cls-11:hover {
cursor:pointer;
fill:rgba(255,220,96,1);
}
.zr1-cls-12:hover {
cursor:pointer;
fill:rgba(255,112,112,1);
}
.zr1-cls-13:hover {
cursor:pointer;
fill:rgba(126,211,244,1);
}
.zr1-cls-14:hover {
cursor:pointer;
fill:rgba(64,178,125,1);
}
.zr1-cls-15:hover {
cursor:pointer;
fill:rgba(0,0,0,0);
}

]]>

</style>
</svg>