<svg width="700" height="220" xmlns="http://www.w3.org/2000/svg" xmlns:xlink="http://www.w3.org/1999/xlink" version="1.1" baseProfile="full" viewBox="0 0 700 220">
<rect width="700" height="220" x="0" y="0" id="0" fill="white"></rect>
<path d="M96.5 156.5L672 156.5" fill="none" stroke="#E0E6F1"></path>
<path d="M96.5 133.5L672 133.5" fill="none" stroke="#E0E6F1"></path>
<path d="M96.5 111.5L672 111.5" fill="none" stroke="#E0E6F1"></path>
<path d="M96.5 89.5L672 89.5" fill="none" stroke="#E0E6F1"></path>
<path d="M96.5 66.5L672 66.5" fill="none" stroke="#E0E6F1"></path>
<path d="M96.5 44.5L672 44.5" fill="none" stroke="#E0E6F1"></path>
<path d="M96.5 156.5L672 156.5" fill="none" stroke="#6E7079" stroke-linecap="round"></path>
<path d="M96.5 156L96.5 161" fill="none" stroke="#6E7079"></path>
<path d="M240.5 156L240.5 161" fill="none" stroke="#6E7079"></path>
<path d="M384.5 156L384.5 161" fill="none" stroke="#6E7079"></path>
<path d="M528.5 156L528.5 161" fill="none" stroke="#6E7079"></path>
<path d="M672.5 156L672.5 161" fill="none" stroke="#6E7079"></path>
<text dominant-baseline="central" text-anchor="end" style="font-size:12px;font-family:sans-serif;" transform="translate(88.48 156)" fill="#6E7079">0</text>
<text dominant-baseline="central" text-anchor="end" style="font-size:12px;font-family:sans-serif;" transform="translate(88.48 133.6)" fill="#6E7079">2,000,000</text>
<text dominant-baseline="central" text-anchor="end" style="font-size:12px;font-family:sans-serif;" transform="translate(88.48 111.2)" fill="#6E7079">4,000,000</text>
<text dominant-baseline="central" text-anchor="end" style="font-size:12px;font-family:sans-serif;" transform="translate(88.48 88.8)" fill="#6E7079">6,000,000</text>
<text dominant-baseline="central" text-anchor="end" style="font-size:12px;font-family:sans-serif;" transform="translate(88.48 66.4)" fill="#6E7079">8,000,000</text>
<text dominant-baseline="central" text-anchor="end" style="font-size:12px;font-family:sans-serif;" transform="translate(88.48 44)" fill="#6E7079">10,000,000</text>
<text dominant-baseline="central" text-anchor="middle" style="font-size:12px;font-family:sans-serif;" y="6" transform="translate(168.42 164)" fill="#6E7079">bounded(0)</text>
<text dominant-baseline="central" text-anchor="middle" style="font-size:12px;font-family:sans-serif;" y="6" transform="translate(312.3 164)" fill="#6E7079">bounded(1)</text>
<text dominant-baseline="central" text-anchor="middle" style="font-size:12px;font-family:sans-serif;" y="6" transform="translate(456.18 164)" fill="#6E7079">bounded(50)</text>
<text dominant-baseline="central" text-anchor="middle" style="font-size:12px;font-family:sans-serif;" y="6" transform="translate(600.06 164)" fill="#6E7079">bounded(100)</text>
<path d="M107.3 156l17.5 0l0 -5.8l-17.5 0Z" fill="#5470c6"></path>
<path d="M251.2 156l17.5 0l0 -8.5l-17.5 0Z" fill="#5470c6"></path>
<path d="M395 156l17.5 0l0 -42l-17.5 0Z" fill="#5470c6"></path>
<path d="M538.9 156l17.5 0l0 -51.8l-17.5 0Z" fill="#5470c6"></path>
<path d="M128.2 156l17.5 0l0 -5.6l-17.5 0Z" fill="#91cc75"></path>
<path d="M272.1 156l17.5 0l0 -8l-17.5 0Z" fill="#91cc75"></path>
<path d="M416 156l17.5 0l0 -65.2l-17.5 0Z" fill="#91cc75"></path>
<path d="M559.9 156l17.5 0l0 -52.9l-17.5 0Z" fill="#91cc75"></path>
<path d="M149.2 156l17.5 0l0 0l-17.5 0Z" fill="#fac858"></path>
<path d="M293.1 156l17.5 0l0 -2.9l-17.5 0Z" fill="#fac858"></path>
<path d="M437 156l17.5 0l0 -61.4l-17.5 0Z" fill="#fac858"></path>
<path d="M580.8 156l17.5 0l0 -76.5l-17.5 0Z" fill="#fac858"></path>
<path d="M170.2 156l17.5 0l0 0l-17.5 0Z" fill="#ee6666"></path>
<path d="M314 156l17.5 0l0 -2.8l-17.5 0Z" fill="#ee6666"></path>
<path d="M457.9 156l17.5 0l0 -75.5l-17.5 0Z" fill="#ee6666"></path>
<path d="M601.8 156l17.5 0l0 -69.5l-17.5 0Z" fill="#ee6666"></path>
<path d="M191.1 156l17.5 0l0 -14.8l-17.5 0Z" fill="#73c0de"></path>
<path d="M335 156l17.5 0l0 -22.4l-17.5 0Z" fill="#73c0de"></path>
<path d="M478.9 156l17.5 0l0 -91l-17.5 0Z" fill="#73c0de"></path>
<path d="M622.8 156l17.5 0l0 -97.4l-17.5 0Z" fill="#73c0de"></path>
<path d="M212.1 156l17.5 0l0 0l-17.5 0Z" fill="#3ba272"></path>
<path d="M356 156l17.5 0l0 0l-17.5 0Z" fill="#3ba272"></path>
<path d="M499.9 156l17.5 0l0 0l-17.5 0Z" fill="#3ba272"></path>
<path d="M643.7 156l17.5 0l0 0l-17.5 0Z" fill="#3ba272"></path>
<path d="M-5 -5l386.7 0l0 24l-386.7 0Z" transform="translate(161.64 190)" fill="rgb(0,0,0)" fill-opacity="0" stroke="#ccc" stroke-width="0"></path>
<path d="M3.5 0L21.5 0A3.5 3.5 0 0 1 25 3.5L25 10.5A3.5 3.5 0 0 1 21.5 14L3.5 14A3.5 3.5 0 0 1 0 10.5L0 3.5A3.5 3.5 0 0 1 3.5 0" transform="translate(161.64 190)" fill="#5470c6"></path>
<text dominant-baseline="central" text-anchor="start" style="font-size:12px;font-family:sans-serif;" x="30" y="7" transform="translate(161.64 190)" fill="#333">loole</text>
<path d="M3.5 0L21.5 0A3.5 3.5 0 0 1 25 3.5L25 10.5A3.5 3.5 0 0 1 21.5 14L3.5 14A3.5 3.5 0 0 1 0 10.5L0 3.5A3.5 3.5 0 0 1 3.5 0" transform="translate(227.08 190)" fill="#91cc75"></path>
<text dominant-baseline="central" text-anchor="start" style="font-size:12px;font-family:sans-serif;" x="30" y="7" transform="translate(227.08 190)" fill="#333">flume</text>
<path d="M3.5 0L21.5 0A3.5 3.5 0 0 1 25 3.5L25 10.5A3.5 3.5 0 0 1 21.5 14L3.5 14A3.5 3.5 0 0 1 0 10.5L0 3.5A3.5 3.5 0 0 1 3.5 0" transform="translate(296.48 190)" fill="#fac858"></path>
<text dominant-baseline="central" text-anchor="start" style="font-size:12px;font-family:sans-serif;" x="30" y="7" transform="translate(296.48 190)" fill="#333">async-channel</text>
<path d="M3.5 0L21.5 0A3.5 3.5 0 0 1 25 3.5L25 10.5A3.5 3.5 0 0 1 21.5 14L3.5 14A3.5 3.5 0 0 1 0 10.5L0 3.5A3.5 3.5 0 0 1 3.5 0" transform="translate(414.12 190)" fill="#ee6666"></path>
<text dominant-baseline="central" text-anchor="start" style="font-size:12px;font-family:sans-serif;" x="30" y="7" transform="translate(414.12 190)" fill="#333">tokio</text>
<path d="M3.5 0L21.5 0A3.5 3.5 0 0 1 25 3.5L25 10.5A3.5 3.5 0 0 1 21.5 14L3.5 14A3.5 3.5 0 0 1 0 10.5L0 3.5A3.5 3.5 0 0 1 3.5 0" transform="translate(479.56 190)" fill="#73c0de"></path>
<text dominant-baseline="central" text-anchor="start" style="font-size:12px;font-family:sans-serif;" x="30" y="7" transform="translate(479.56 190)" fill="#333">kanal</text>
<path d="M-120.5 -4.5l241 0l0 23l-241 0Z" transform="translate(350 16)" fill="#ddd8" stroke="#ccc"></path>
<text dominant-baseline="central" text-anchor="middle" style="font-size:14px;font-family:sans-serif;font-weight:bold;" xml:space="preserve" y="7" transform="translate(350 16)" fill="#464646">1 async sender / 1 sync receiver</text>
</svg>