<svg width="700" height="220" xmlns="http://www.w3.org/2000/svg" xmlns:xlink="http://www.w3.org/1999/xlink" version="1.1" baseProfile="full" viewBox="0 0 700 220">
<rect width="700" height="220" x="0" y="0" fill="white"></rect>
<path d="M96.5 156.5L672 156.5" fill="none" pointer-events="visible" stroke="#E0E6F1" class="zr10-cls-80"></path>
<path d="M96.5 133.5L672 133.5" fill="none" pointer-events="visible" stroke="#E0E6F1" class="zr10-cls-80"></path>
<path d="M96.5 111.5L672 111.5" fill="none" pointer-events="visible" stroke="#E0E6F1" class="zr10-cls-80"></path>
<path d="M96.5 89.5L672 89.5" fill="none" pointer-events="visible" stroke="#E0E6F1" class="zr10-cls-80"></path>
<path d="M96.5 66.5L672 66.5" fill="none" pointer-events="visible" stroke="#E0E6F1" class="zr10-cls-80"></path>
<path d="M96.5 44.5L672 44.5" fill="none" pointer-events="visible" stroke="#E0E6F1" class="zr10-cls-80"></path>
<path d="M96.5 156.5L672 156.5" fill="none" pointer-events="visible" stroke="#6E7079" stroke-linecap="round" class="zr10-cls-80"></path>
<path d="M96.5 156L96.5 161" fill="none" pointer-events="visible" stroke="#6E7079" class="zr10-cls-80"></path>
<path d="M240.5 156L240.5 161" fill="none" pointer-events="visible" stroke="#6E7079" class="zr10-cls-80"></path>
<path d="M384.5 156L384.5 161" fill="none" pointer-events="visible" stroke="#6E7079" class="zr10-cls-80"></path>
<path d="M528.5 156L528.5 161" fill="none" pointer-events="visible" stroke="#6E7079" class="zr10-cls-80"></path>
<path d="M672.5 156L672.5 161" fill="none" pointer-events="visible" stroke="#6E7079" class="zr10-cls-80"></path>
<text dominant-baseline="central" text-anchor="end" style="font-size:12px;font-family:sans-serif;" transform="translate(88.48 156)" fill="#6E7079">0</text>
<text dominant-baseline="central" text-anchor="end" style="font-size:12px;font-family:sans-serif;" transform="translate(88.48 133.6)" fill="#6E7079">2,000,000</text>
<text dominant-baseline="central" text-anchor="end" style="font-size:12px;font-family:sans-serif;" transform="translate(88.48 111.2)" fill="#6E7079">4,000,000</text>
<text dominant-baseline="central" text-anchor="end" style="font-size:12px;font-family:sans-serif;" transform="translate(88.48 88.8)" fill="#6E7079">6,000,000</text>
<text dominant-baseline="central" text-anchor="end" style="font-size:12px;font-family:sans-serif;" transform="translate(88.48 66.4)" fill="#6E7079">8,000,000</text>
<text dominant-baseline="central" text-anchor="end" style="font-size:12px;font-family:sans-serif;" transform="translate(88.48 44)" fill="#6E7079">10,000,000</text>
<text dominant-baseline="central" text-anchor="middle" style="font-size:12px;font-family:sans-serif;" y="6" transform="translate(168.42 164)" fill="#6E7079">bounded(0)</text>
<text dominant-baseline="central" text-anchor="middle" style="font-size:12px;font-family:sans-serif;" y="6" transform="translate(312.3 164)" fill="#6E7079">bounded(1)</text>
<text dominant-baseline="central" text-anchor="middle" style="font-size:12px;font-family:sans-serif;" y="6" transform="translate(456.18 164)" fill="#6E7079">bounded(50)</text>
<text dominant-baseline="central" text-anchor="middle" style="font-size:12px;font-family:sans-serif;" y="6" transform="translate(600.06 164)" fill="#6E7079">bounded(100)</text>
<path d="M107.3 156l17.5 0l0 -5.9l-17.5 0Z" fill="#5470c6" ecmeta_series_index="0" ecmeta_data_index="0" ecmeta_ssr_type="chart" class="zr10-cls-81"></path>
<path d="M251.2 156l17.5 0l0 -6l-17.5 0Z" fill="#5470c6" ecmeta_series_index="0" ecmeta_data_index="1" ecmeta_ssr_type="chart" class="zr10-cls-81"></path>
<path d="M395 156l17.5 0l0 -53.5l-17.5 0Z" fill="#5470c6" ecmeta_series_index="0" ecmeta_data_index="2" ecmeta_ssr_type="chart" class="zr10-cls-81"></path>
<path d="M538.9 156l17.5 0l0 -53.8l-17.5 0Z" fill="#5470c6" ecmeta_series_index="0" ecmeta_data_index="3" ecmeta_ssr_type="chart" class="zr10-cls-81"></path>
<path d="M128.2 156l17.5 0l0 -6.1l-17.5 0Z" fill="#91cc75" ecmeta_series_index="1" ecmeta_data_index="0" ecmeta_ssr_type="chart" class="zr10-cls-82"></path>
<path d="M272.1 156l17.5 0l0 -9l-17.5 0Z" fill="#91cc75" ecmeta_series_index="1" ecmeta_data_index="1" ecmeta_ssr_type="chart" class="zr10-cls-82"></path>
<path d="M416 156l17.5 0l0 -72.1l-17.5 0Z" fill="#91cc75" ecmeta_series_index="1" ecmeta_data_index="2" ecmeta_ssr_type="chart" class="zr10-cls-82"></path>
<path d="M559.9 156l17.5 0l0 -72.5l-17.5 0Z" fill="#91cc75" ecmeta_series_index="1" ecmeta_data_index="3" ecmeta_ssr_type="chart" class="zr10-cls-82"></path>
<path d="M149.2 156l17.5 0l0 0l-17.5 0Z" fill="#fac858" ecmeta_series_index="2" ecmeta_data_index="0" ecmeta_ssr_type="chart" class="zr10-cls-83"></path>
<path d="M293.1 156l17.5 0l0 -3.1l-17.5 0Z" fill="#fac858" ecmeta_series_index="2" ecmeta_data_index="1" ecmeta_ssr_type="chart" class="zr10-cls-83"></path>
<path d="M437 156l17.5 0l0 -50.7l-17.5 0Z" fill="#fac858" ecmeta_series_index="2" ecmeta_data_index="2" ecmeta_ssr_type="chart" class="zr10-cls-83"></path>
<path d="M580.8 156l17.5 0l0 -45.5l-17.5 0Z" fill="#fac858" ecmeta_series_index="2" ecmeta_data_index="3" ecmeta_ssr_type="chart" class="zr10-cls-83"></path>
<path d="M170.2 156l17.5 0l0 0l-17.5 0Z" fill="#ee6666" ecmeta_series_index="3" ecmeta_data_index="0" ecmeta_ssr_type="chart" class="zr10-cls-84"></path>
<path d="M314 156l17.5 0l0 -3.2l-17.5 0Z" fill="#ee6666" ecmeta_series_index="3" ecmeta_data_index="1" ecmeta_ssr_type="chart" class="zr10-cls-84"></path>
<path d="M457.9 156l17.5 0l0 -72.3l-17.5 0Z" fill="#ee6666" ecmeta_series_index="3" ecmeta_data_index="2" ecmeta_ssr_type="chart" class="zr10-cls-84"></path>
<path d="M601.8 156l17.5 0l0 -71.7l-17.5 0Z" fill="#ee6666" ecmeta_series_index="3" ecmeta_data_index="3" ecmeta_ssr_type="chart" class="zr10-cls-84"></path>
<path d="M191.1 156l17.5 0l0 -13.6l-17.5 0Z" fill="#73c0de" ecmeta_series_index="4" ecmeta_data_index="0" ecmeta_ssr_type="chart" class="zr10-cls-85"></path>
<path d="M335 156l17.5 0l0 -19.8l-17.5 0Z" fill="#73c0de" ecmeta_series_index="4" ecmeta_data_index="1" ecmeta_ssr_type="chart" class="zr10-cls-85"></path>
<path d="M478.9 156l17.5 0l0 -81.1l-17.5 0Z" fill="#73c0de" ecmeta_series_index="4" ecmeta_data_index="2" ecmeta_ssr_type="chart" class="zr10-cls-85"></path>
<path d="M622.8 156l17.5 0l0 -109.4l-17.5 0Z" fill="#73c0de" ecmeta_series_index="4" ecmeta_data_index="3" ecmeta_ssr_type="chart" class="zr10-cls-85"></path>
<path d="M212.1 156l17.5 0l0 0l-17.5 0Z" fill="#3ba272" ecmeta_series_index="5" ecmeta_data_index="0" ecmeta_ssr_type="chart" class="zr10-cls-86"></path>
<path d="M356 156l17.5 0l0 0l-17.5 0Z" fill="#3ba272" ecmeta_series_index="5" ecmeta_data_index="1" ecmeta_ssr_type="chart" class="zr10-cls-86"></path>
<path d="M499.9 156l17.5 0l0 0l-17.5 0Z" fill="#3ba272" ecmeta_series_index="5" ecmeta_data_index="2" ecmeta_ssr_type="chart" class="zr10-cls-86"></path>
<path d="M643.7 156l17.5 0l0 0l-17.5 0Z" fill="#3ba272" ecmeta_series_index="5" ecmeta_data_index="3" ecmeta_ssr_type="chart" class="zr10-cls-86"></path>
<path d="M-5 -5l450.8 0l0 24l-450.8 0Z" transform="translate(129.6 190)" fill="rgb(0,0,0)" fill-opacity="0" stroke="#ccc" stroke-width="0" class="zr10-cls-80"></path>
<path d="M3.5 0L21.5 0A3.5 3.5 0 0 1 25 3.5L25 10.5A3.5 3.5 0 0 1 21.5 14L3.5 14A3.5 3.5 0 0 1 0 10.5L0 3.5A3.5 3.5 0 0 1 3.5 0" transform="translate(129.6 190)" fill="#5470c6" ecmeta_series_index="0" ecmeta_data_index="0" ecmeta_ssr_type="legend" ecmeta_silent="true" class="zr10-cls-80"></path>
<text dominant-baseline="central" text-anchor="start" style="font-size:12px;font-family:sans-serif;" x="30" y="7" transform="translate(129.6 190)" fill="#333">loole</text>
<path d="M0 0l55.4 0l0 14l-55.4 0Z" transform="translate(129.6 190)" fill="none" pointer-events="visible" ecmeta_series_index="0" ecmeta_data_index="0" ecmeta_ssr_type="legend" class="zr10-cls-87"></path>
<path d="M3.5 0L21.5 0A3.5 3.5 0 0 1 25 3.5L25 10.5A3.5 3.5 0 0 1 21.5 14L3.5 14A3.5 3.5 0 0 1 0 10.5L0 3.5A3.5 3.5 0 0 1 3.5 0" transform="translate(195.04 190)" fill="#91cc75" ecmeta_series_index="1" ecmeta_data_index="1" ecmeta_ssr_type="legend" ecmeta_silent="true" class="zr10-cls-80"></path>
<text dominant-baseline="central" text-anchor="start" style="font-size:12px;font-family:sans-serif;" x="30" y="7" transform="translate(195.04 190)" fill="#333">flume</text>
<path d="M0 0l59.4 0l0 14l-59.4 0Z" transform="translate(195.04 190)" fill="none" pointer-events="visible" ecmeta_series_index="1" ecmeta_data_index="1" ecmeta_ssr_type="legend" class="zr10-cls-87"></path>
<path d="M3.5 0L21.5 0A3.5 3.5 0 0 1 25 3.5L25 10.5A3.5 3.5 0 0 1 21.5 14L3.5 14A3.5 3.5 0 0 1 0 10.5L0 3.5A3.5 3.5 0 0 1 3.5 0" transform="translate(264.44 190)" fill="#fac858" ecmeta_series_index="2" ecmeta_data_index="2" ecmeta_ssr_type="legend" ecmeta_silent="true" class="zr10-cls-80"></path>
<text dominant-baseline="central" text-anchor="start" style="font-size:12px;font-family:sans-serif;" x="30" y="7" transform="translate(264.44 190)" fill="#333">async-channel</text>
<path d="M0 0l107.6 0l0 14l-107.6 0Z" transform="translate(264.44 190)" fill="none" pointer-events="visible" ecmeta_series_index="2" ecmeta_data_index="2" ecmeta_ssr_type="legend" class="zr10-cls-87"></path>
<path d="M3.5 0L21.5 0A3.5 3.5 0 0 1 25 3.5L25 10.5A3.5 3.5 0 0 1 21.5 14L3.5 14A3.5 3.5 0 0 1 0 10.5L0 3.5A3.5 3.5 0 0 1 3.5 0" transform="translate(382.08 190)" fill="#ee6666" ecmeta_series_index="3" ecmeta_data_index="3" ecmeta_ssr_type="legend" ecmeta_silent="true" class="zr10-cls-80"></path>
<text dominant-baseline="central" text-anchor="start" style="font-size:12px;font-family:sans-serif;" x="30" y="7" transform="translate(382.08 190)" fill="#333">tokio</text>
<path d="M0 0l55.4 0l0 14l-55.4 0Z" transform="translate(382.08 190)" fill="none" pointer-events="visible" ecmeta_series_index="3" ecmeta_data_index="3" ecmeta_ssr_type="legend" class="zr10-cls-87"></path>
<path d="M3.5 0L21.5 0A3.5 3.5 0 0 1 25 3.5L25 10.5A3.5 3.5 0 0 1 21.5 14L3.5 14A3.5 3.5 0 0 1 0 10.5L0 3.5A3.5 3.5 0 0 1 3.5 0" transform="translate(447.52 190)" fill="#73c0de" ecmeta_series_index="4" ecmeta_data_index="4" ecmeta_ssr_type="legend" ecmeta_silent="true" class="zr10-cls-80"></path>
<text dominant-baseline="central" text-anchor="start" style="font-size:12px;font-family:sans-serif;" xml:space="preserve" x="30" y="7" transform="translate(447.52 190)" fill="#333">kanal (std-mutex)</text>
<path d="M0 0l122.9 0l0 14l-122.9 0Z" transform="translate(447.52 190)" fill="none" pointer-events="visible" ecmeta_series_index="4" ecmeta_data_index="4" ecmeta_ssr_type="legend" class="zr10-cls-87"></path>
<path d="M-120.5 -4.5l241 0l0 23l-241 0Z" transform="translate(350 16)" fill="#ddd8" stroke="#ccc" class="zr10-cls-80"></path>
<text dominant-baseline="central" text-anchor="middle" style="font-size:14px;font-family:sans-serif;font-weight:bold;" xml:space="preserve" y="7" transform="translate(350 16)" fill="#464646">1 async sender / 1 sync receiver</text>
<style ><![CDATA[
.zr10-cls-80:hover {
pointer-events:none;
}
.zr10-cls-81:hover {
cursor:pointer;
fill:rgba(92,123,217,1);
}
.zr10-cls-82:hover {
cursor:pointer;
fill:rgba(159,224,128,1);
}
.zr10-cls-83:hover {
cursor:pointer;
fill:rgba(255,220,96,1);
}
.zr10-cls-84:hover {
cursor:pointer;
fill:rgba(255,112,112,1);
}
.zr10-cls-85:hover {
cursor:pointer;
fill:rgba(126,211,244,1);
}
.zr10-cls-86:hover {
cursor:pointer;
fill:rgba(64,178,125,1);
}
.zr10-cls-87:hover {
cursor:pointer;
fill:rgba(0,0,0,0);
}

]]>

</style>
</svg>