<svg width="700" height="220" xmlns="http://www.w3.org/2000/svg" xmlns:xlink="http://www.w3.org/1999/xlink" version="1.1" baseProfile="full" viewBox="0 0 700 220">
<rect width="700" height="220" x="0" y="0" id="0" fill="white"></rect>
<path d="M96.5 156.5L672 156.5" fill="none" stroke="#E0E6F1"></path>
<path d="M96.5 137.5L672 137.5" fill="none" stroke="#E0E6F1"></path>
<path d="M96.5 118.5L672 118.5" fill="none" stroke="#E0E6F1"></path>
<path d="M96.5 100.5L672 100.5" fill="none" stroke="#E0E6F1"></path>
<path d="M96.5 81.5L672 81.5" fill="none" stroke="#E0E6F1"></path>
<path d="M96.5 62.5L672 62.5" fill="none" stroke="#E0E6F1"></path>
<path d="M96.5 44.5L672 44.5" fill="none" stroke="#E0E6F1"></path>
<path d="M96.5 156.5L672 156.5" fill="none" stroke="#6E7079" stroke-linecap="round"></path>
<path d="M96.5 156L96.5 161" fill="none" stroke="#6E7079"></path>
<path d="M240.5 156L240.5 161" fill="none" stroke="#6E7079"></path>
<path d="M384.5 156L384.5 161" fill="none" stroke="#6E7079"></path>
<path d="M528.5 156L528.5 161" fill="none" stroke="#6E7079"></path>
<path d="M672.5 156L672.5 161" fill="none" stroke="#6E7079"></path>
<text dominant-baseline="central" text-anchor="end" style="font-size:12px;font-family:sans-serif;" transform="translate(88.48 156)" fill="#6E7079">0</text>
<text dominant-baseline="central" text-anchor="end" style="font-size:12px;font-family:sans-serif;" transform="translate(88.48 137.3333)" fill="#6E7079">2,000,000</text>
<text dominant-baseline="central" text-anchor="end" style="font-size:12px;font-family:sans-serif;" transform="translate(88.48 118.6667)" fill="#6E7079">4,000,000</text>
<text dominant-baseline="central" text-anchor="end" style="font-size:12px;font-family:sans-serif;" transform="translate(88.48 100)" fill="#6E7079">6,000,000</text>
<text dominant-baseline="central" text-anchor="end" style="font-size:12px;font-family:sans-serif;" transform="translate(88.48 81.3333)" fill="#6E7079">8,000,000</text>
<text dominant-baseline="central" text-anchor="end" style="font-size:12px;font-family:sans-serif;" transform="translate(88.48 62.6667)" fill="#6E7079">10,000,000</text>
<text dominant-baseline="central" text-anchor="end" style="font-size:12px;font-family:sans-serif;" transform="translate(88.48 44)" fill="#6E7079">12,000,000</text>
<text dominant-baseline="central" text-anchor="middle" style="font-size:12px;font-family:sans-serif;" y="6" transform="translate(168.42 164)" fill="#6E7079">bounded(0)</text>
<text dominant-baseline="central" text-anchor="middle" style="font-size:12px;font-family:sans-serif;" y="6" transform="translate(312.3 164)" fill="#6E7079">bounded(1)</text>
<text dominant-baseline="central" text-anchor="middle" style="font-size:12px;font-family:sans-serif;" y="6" transform="translate(456.18 164)" fill="#6E7079">bounded(50)</text>
<text dominant-baseline="central" text-anchor="middle" style="font-size:12px;font-family:sans-serif;" y="6" transform="translate(600.06 164)" fill="#6E7079">bounded(100)</text>
<path d="M107.3 156l17.5 0l0 -4.8l-17.5 0Z" fill="#5470c6"></path>
<path d="M251.2 156l17.5 0l0 -4.8l-17.5 0Z" fill="#5470c6"></path>
<path d="M395 156l17.5 0l0 -55.6l-17.5 0Z" fill="#5470c6"></path>
<path d="M538.9 156l17.5 0l0 -48.9l-17.5 0Z" fill="#5470c6"></path>
<path d="M128.2 156l17.5 0l0 -4.7l-17.5 0Z" fill="#91cc75"></path>
<path d="M272.1 156l17.5 0l0 -4.8l-17.5 0Z" fill="#91cc75"></path>
<path d="M416 156l17.5 0l0 -50l-17.5 0Z" fill="#91cc75"></path>
<path d="M559.9 156l17.5 0l0 -46.1l-17.5 0Z" fill="#91cc75"></path>
<path d="M149.2 156l17.5 0l0 0l-17.5 0Z" fill="#fac858"></path>
<path d="M293.1 156l17.5 0l0 -2.4l-17.5 0Z" fill="#fac858"></path>
<path d="M437 156l17.5 0l0 -70l-17.5 0Z" fill="#fac858"></path>
<path d="M580.8 156l17.5 0l0 -56.2l-17.5 0Z" fill="#fac858"></path>
<path d="M170.2 156l17.5 0l0 0l-17.5 0Z" fill="#ee6666"></path>
<path d="M314 156l17.5 0l0 -2.3l-17.5 0Z" fill="#ee6666"></path>
<path d="M457.9 156l17.5 0l0 -64.5l-17.5 0Z" fill="#ee6666"></path>
<path d="M601.8 156l17.5 0l0 -66.7l-17.5 0Z" fill="#ee6666"></path>
<path d="M191.1 156l17.5 0l0 -12.6l-17.5 0Z" fill="#73c0de"></path>
<path d="M335 156l17.5 0l0 -19.6l-17.5 0Z" fill="#73c0de"></path>
<path d="M478.9 156l17.5 0l0 -88l-17.5 0Z" fill="#73c0de"></path>
<path d="M622.8 156l17.5 0l0 -98.8l-17.5 0Z" fill="#73c0de"></path>
<path d="M212.1 156l17.5 0l0 0l-17.5 0Z" fill="#3ba272"></path>
<path d="M356 156l17.5 0l0 0l-17.5 0Z" fill="#3ba272"></path>
<path d="M499.9 156l17.5 0l0 0l-17.5 0Z" fill="#3ba272"></path>
<path d="M643.7 156l17.5 0l0 0l-17.5 0Z" fill="#3ba272"></path>
<path d="M-5 -5l450.8 0l0 24l-450.8 0Z" transform="translate(129.6 190)" fill="rgb(0,0,0)" fill-opacity="0" stroke="#ccc" stroke-width="0"></path>
<path d="M3.5 0L21.5 0A3.5 3.5 0 0 1 25 3.5L25 10.5A3.5 3.5 0 0 1 21.5 14L3.5 14A3.5 3.5 0 0 1 0 10.5L0 3.5A3.5 3.5 0 0 1 3.5 0" transform="translate(129.6 190)" fill="#5470c6"></path>
<text dominant-baseline="central" text-anchor="start" style="font-size:12px;font-family:sans-serif;" x="30" y="7" transform="translate(129.6 190)" fill="#333">loole</text>
<path d="M3.5 0L21.5 0A3.5 3.5 0 0 1 25 3.5L25 10.5A3.5 3.5 0 0 1 21.5 14L3.5 14A3.5 3.5 0 0 1 0 10.5L0 3.5A3.5 3.5 0 0 1 3.5 0" transform="translate(195.04 190)" fill="#91cc75"></path>
<text dominant-baseline="central" text-anchor="start" style="font-size:12px;font-family:sans-serif;" x="30" y="7" transform="translate(195.04 190)" fill="#333">flume</text>
<path d="M3.5 0L21.5 0A3.5 3.5 0 0 1 25 3.5L25 10.5A3.5 3.5 0 0 1 21.5 14L3.5 14A3.5 3.5 0 0 1 0 10.5L0 3.5A3.5 3.5 0 0 1 3.5 0" transform="translate(264.44 190)" fill="#fac858"></path>
<text dominant-baseline="central" text-anchor="start" style="font-size:12px;font-family:sans-serif;" x="30" y="7" transform="translate(264.44 190)" fill="#333">async-channel</text>
<path d="M3.5 0L21.5 0A3.5 3.5 0 0 1 25 3.5L25 10.5A3.5 3.5 0 0 1 21.5 14L3.5 14A3.5 3.5 0 0 1 0 10.5L0 3.5A3.5 3.5 0 0 1 3.5 0" transform="translate(382.08 190)" fill="#ee6666"></path>
<text dominant-baseline="central" text-anchor="start" style="font-size:12px;font-family:sans-serif;" x="30" y="7" transform="translate(382.08 190)" fill="#333">tokio</text>
<path d="M3.5 0L21.5 0A3.5 3.5 0 0 1 25 3.5L25 10.5A3.5 3.5 0 0 1 21.5 14L3.5 14A3.5 3.5 0 0 1 0 10.5L0 3.5A3.5 3.5 0 0 1 3.5 0" transform="translate(447.52 190)" fill="#73c0de"></path>
<text dominant-baseline="central" text-anchor="start" style="font-size:12px;font-family:sans-serif;" xml:space="preserve" x="30" y="7" transform="translate(447.52 190)" fill="#333">kanal (std-mutex)</text>
<path d="M-120.5 -4.5l241 0l0 23l-241 0Z" transform="translate(350 16)" fill="#ddd8" stroke="#ccc"></path>
<text dominant-baseline="central" text-anchor="middle" style="font-size:14px;font-family:sans-serif;font-weight:bold;" xml:space="preserve" y="7" transform="translate(350 16)" fill="#464646">1 sync sender / 1 async receiver</text>
</svg>